<svg xmlns="http://www.w3.org/2000/svg" width="20.899" height="21.086" viewBox="0 0 20.899 21.086">
  <g id="list-view" transform="translate(-153.31 -71.6)">
    <path id="Path_202" data-name="Path 202" d="M144.71,226.5a2.5,2.5,0,1,1-2.5-2.5,2.5,2.5,0,0,1,2.5,2.5" transform="translate(13.6 -144.357)" fill="#4e245e"/>
    <path id="Path_203" data-name="Path 203" d="M291.013,268.57h-11.37a.5.5,0,0,0,0,1.006h11.37a.5.5,0,0,0,0-1.006Z" transform="translate(-117.556 -186.944)" fill="#4e245e" stroke="#000" stroke-width="0.5"/>
    <path id="Path_204" data-name="Path 204" d="M144.71,66.5a2.5,2.5,0,1,1-2.5-2.5,2.5,2.5,0,0,1,2.5,2.5" transform="translate(13.6 7.6)" fill="#4e245e"/>
    <path id="Path_205" data-name="Path 205" d="M291.013,108.57h-11.37a.5.5,0,1,0,0,1.006h11.37a.5.5,0,0,0,0-1.006Z" transform="translate(-117.556 -34.944)" fill="#4e245e" stroke="#000" stroke-width="0.5"/>
    <path id="Path_206" data-name="Path 206" d="M144.71,386.5a2.5,2.5,0,1,1-2.5-2.5,2.5,2.5,0,0,1,2.5,2.5" transform="translate(13.6 -296.313)" fill="#4e245e"/>
    <path id="Path_207" data-name="Path 207" d="M291.013,428.57h-11.37a.5.5,0,1,0,0,1.006h11.37a.5.5,0,0,0,0-1.006Z" transform="translate(-117.556 -338.944)" fill="#4e245e" stroke="#000" stroke-width="0.5"/>
  </g>
</svg>
