<svg xmlns="http://www.w3.org/2000/svg" xmlns:xlink="http://www.w3.org/1999/xlink" width="228" height="50" viewBox="0 0 228 50">
  <defs>
    <clipPath id="clip-path">
      <rect id="Rectangle_2" data-name="Rectangle 2" width="228" height="50" transform="translate(0 0.355)" fill="none"/>
    </clipPath>
  </defs>
  <g id="main-logo" transform="translate(-0.988 -41.626)">
    <g id="Group_1" data-name="Group 1" transform="translate(0.988 41.271)" clip-path="url(#clip-path)">
      <path id="Path_1" data-name="Path 1" d="M144.711,15.39a11.251,11.251,0,0,1,1.969-4.048A9.646,9.646,0,0,1,158.26,8.6a9.541,9.541,0,0,1,5.682,9.028c0,.63-.026,1.264,0,1.893.025.42-.125.5-.515.5-4.161-.013-8.321,0-12.492,0h-.676a4.608,4.608,0,0,0,1.223,1.32,4.562,4.562,0,0,0,1.633.746,4.468,4.468,0,0,0,4.238-1.05c.215-.193.353-.255.607,0,1,.984,2.02,1.952,3.046,2.9.235.217.253.334,0,.581a9.646,9.646,0,0,1-11.79,1.314,9.372,9.372,0,0,1-4.143-5.249.719.719,0,0,0-.823-.587c-4.124.024-8.25.013-12.375.013h-.647a3.73,3.73,0,0,0,1.357,1.424,4.6,4.6,0,0,0,5.789-.466c.2-.173.282-.167.465,0,1.038.993,2.089,1.971,3.14,2.951.179.168.274.288.039.516a9.733,9.733,0,0,1-15.373-11.584A9.345,9.345,0,0,1,134.1,7.759a9.705,9.705,0,0,1,9.871,5.535,17.305,17.305,0,0,1,.743,2.1m-5.564-.42a4.65,4.65,0,0,0-7.589-.516c-.114.135-.319.279-.259.444s.319.094.484.094h6.827c.155,0,.312-.011.536-.022m11.128-.02h8a4.767,4.767,0,0,0-4.241-2.214,4.587,4.587,0,0,0-3.756,2.214" transform="translate(11.704 1.001)" fill="#4e245e"/>
      <path id="Path_2" data-name="Path 2" d="M16.889,17.629v-.577q0-7.846-.011-15.7c0-.468.087-.651.605-.651,1.435.037,2.872.022,4.308,0,.36,0,.493.079.493.473q-.015,13.069,0,26.142c0,.381-.11.486-.482.479-1.363-.02-2.727-.015-4.092,0a.616.616,0,0,1-.573-.3Q12.473,20.851,7.8,14.213c-.75-1.068-1.507-2.13-2.283-3.225a.976.976,0,0,0-.1.636c0,5.177-.011,10.354,0,15.532,0,.53-.147.663-.661.65-1.4-.035-2.8-.024-4.2,0-.4,0-.564-.067-.562-.527Q.02,14.271,0,1.245C0,.8.155.7.556.709,1.83.731,3.1.727,4.377.709a.746.746,0,0,1,.693.384Q10.582,8.925,16.112,16.74c.215.3.42.616.629.926Z" transform="translate(-0.347 0.331)" fill="#4e245e"/>
      <path id="Path_3" data-name="Path 3" d="M104.381,14.308V1.263c0-.313,0-.539.431-.535,2.942.026,5.881,0,8.83.043a13.261,13.261,0,0,1,6.477,1.874,12.646,12.646,0,0,1,5.245,5.593,13.128,13.128,0,0,1-.132,12.295,12.976,12.976,0,0,1-9.858,7.093,21.666,21.666,0,0,1-3.644.2c-2.259,0-4.522-.018-6.779.012-.5,0-.58-.151-.578-.605.015-4.312.009-8.622.009-12.924m5.4-.056q0,3.818-.011,7.634c0,.433.125.557.547.541,1.058-.036,2.118,0,3.173-.043a8.14,8.14,0,0,0,7.814-9.354,8.223,8.223,0,0,0-6.769-6.746c-1.379-.181-2.759-.039-4.135-.111-.474-.024-.646.091-.634.609.031,2.478.015,4.968.015,7.458Z" transform="translate(9.679 0.333)" fill="#4e245e"/>
      <path id="Path_4" data-name="Path 4" d="M89.42,26.052a12.135,12.135,0,0,1-1.77.638,9.491,9.491,0,0,1-8.865-2.1,9.207,9.207,0,0,1-3.23-8.293,9.233,9.233,0,0,1,5.537-7.773,9.07,9.07,0,0,1,8.479.166,9.287,9.287,0,0,1,5.221,8.484c.054,2.58.027,5.16,0,7.74A9.308,9.308,0,0,1,91.022,32.5a9.6,9.6,0,0,1-12.188-.334c-.308-.26-.288-.41-.043-.665,1-1.037,1.99-2.075,2.966-3.133.254-.276.409-.2.659,0a4.432,4.432,0,0,0,7-2.32m-8.785-8.781a4.528,4.528,0,0,0,2.76,4.2,4.479,4.479,0,0,0,4.913-.959,4.561,4.561,0,0,0,.026-6.435,4.5,4.5,0,0,0-6.373.015,4.565,4.565,0,0,0-1.326,3.177" transform="translate(6.905 0.989)" fill="#4e245e"/>
      <path id="Path_5" data-name="Path 5" d="M173.733,20.01A4.62,4.62,0,0,0,180.84,21c.181-.167.286-.251.513-.032q1.56,1.517,3.165,3c.25.232.121.343-.045.5a9.49,9.49,0,0,1-5.384,2.662,9.622,9.622,0,0,1-9.894-4.915A9.8,9.8,0,0,1,173.18,8.831a9.243,9.243,0,0,1,8.908-.043,9.423,9.423,0,0,1,5.246,7.876c.1.971.029,1.951.071,2.917.02.45-.215.433-.529.433H177.3ZM181.6,15a.842.842,0,0,0-.031-.2,4.661,4.661,0,0,0-7.5-.362c-.114.136-.362.279-.253.483.086.162.329.069.5.071h5.1Z" transform="translate(15.788 0.999)" fill="#4e245e"/>
      <path id="Path_6" data-name="Path 6" d="M45.389,20.011a4.637,4.637,0,0,0,7.028,1.045c.272-.253.4-.269.67,0,.971.958,1.969,1.891,2.977,2.819.273.251.277.388,0,.661a9.763,9.763,0,0,1-10.369,2.006,9.538,9.538,0,0,1-5.966-7.656A9.525,9.525,0,0,1,44.706,8.9a9.417,9.417,0,0,1,11.237,1.449A9.5,9.5,0,0,1,59.024,17.4c.018.7-.023,1.41.011,2.11.022.414-.114.51-.512.507-4.162-.013-8.322,0-12.492,0Zm-.045-5.069h7.979a4.69,4.69,0,0,0-7.979,0" transform="translate(3.459 1)" fill="#4e245e"/>
      <path id="Path_7" data-name="Path 7" d="M58.444,17.357V8.16c0-.45.123-.583.571-.574q2.045.041,4.09,0c.432,0,.589.139.535.552a2.3,2.3,0,0,0,0,.326c-.019.295,0,.414.377.277a8.644,8.644,0,0,1,10.049,2.876,8.756,8.756,0,0,1,1.553,3.39,8.214,8.214,0,0,1,.186,1.823q0,4.878.009,9.74c0,.433-.09.6-.557.587q-2.017-.048-4.034,0c-.469.011-.562-.161-.561-.59.015-3.1,0-6.2,0-9.308a3.7,3.7,0,0,0-1.507-3.234,3.29,3.29,0,0,0-3.5-.345,3.223,3.223,0,0,0-2.028,3.048q-.028,4.924,0,9.848c0,.433-.106.59-.564.581-1.361-.031-2.726-.026-4.092,0-.421,0-.55-.109-.548-.545.035-3.084.02-6.17.02-9.255" transform="translate(5.266 0.992)" fill="#4e245e"/>
      <path id="Path_8" data-name="Path 8" d="M40.106,13.944c0,1.822.052,3.644,0,5.464a8.643,8.643,0,0,1-5.367,7.324,8.421,8.421,0,0,1-7.163-.363A8.177,8.177,0,0,1,23,19.523c-.241-2.786-.049-5.586-.085-8.38-.013-.973,0-1.951,0-2.922,0-.3.041-.455.4-.452,1.452.02,2.906.026,4.357,0,.431,0,.4.217.4.5v10.01a3.7,3.7,0,0,0,1.333,3.1,3.235,3.235,0,0,0,3.328.546,3.313,3.313,0,0,0,2.205-2.745A19.639,19.639,0,0,0,35,16.266q.013-3.975,0-7.954c0-.414.1-.552.534-.544q2.047.041,4.093,0c.431-.011.534.14.529.548-.02,1.878,0,3.753,0,5.637Z" transform="translate(1.851 1.009)" fill="#4e245e"/>
      <path id="Path_9" data-name="Path 9" d="M198.268,11.13V4.312a.557.557,0,0,1,.01-.217.536.536,0,0,1,.091-.2.548.548,0,0,1,.159-.147.562.562,0,0,1,.2-.073c1.391-.446,2.781-.91,4.156-1.4.476-.17.56-.048.554.433-.027,1.715,0,3.428-.02,5.143,0,.368.089.494.475.488,1.525-.022,3.049,0,4.572-.018.35,0,.466.092.459.452q-.028,2,0,4c0,.341-.112.434-.431.421-1.525-.013-3.049,0-4.573-.013-.351,0-.51.055-.5.461.033,1.3,0,2.6.033,3.9a5.479,5.479,0,0,0,1.482,3.582,5.409,5.409,0,0,0,3.471,1.687c.412.034.537.138.528.559q-.039,2.085,0,4.167c0,.433-.14.516-.524.492a10.472,10.472,0,0,1-7.258-3.411,10.614,10.614,0,0,1-2.886-7.608c.009-1.966,0-3.937,0-5.888" transform="translate(18.698 0.475)" fill="#4e245e"/>
      <path id="Path_10" data-name="Path 10" d="M167.088,13.873q0,6.71.013,13.416c0,.488-.138.609-.605.6q-2.016-.049-4.034,0c-.455.011-.614-.089-.614-.587q.025-12.574,0-25.149c0-.358.085-.549.443-.664,1.426-.453,2.848-.918,4.258-1.415.446-.157.545-.066.543.395q-.015,6.7,0,13.407" transform="translate(15.201 0.263)" fill="#4e245e"/>
      <path id="Path_11" data-name="Path 11" d="M186.789,21.948a46.987,46.987,0,0,1,.163-5.284,11.382,11.382,0,0,1,8.184-8.941,10.827,10.827,0,0,1,2.486-.357c.277,0,.37.076.368.362q-.02,2.213,0,4.434c0,.312-.111.379-.4.4a6.016,6.016,0,0,0-5.634,6.178c0,2.633-.011,5.264,0,7.9,0,.434-.114.547-.536.538q-2.073-.039-4.14,0c-.418,0-.506-.128-.5-.521.02-1.459.007-2.92.007-4.709" transform="translate(17.596 0.97)" fill="#4e245e"/>
      <path id="Path_12" data-name="Path 12" d="M5.458-7.086q-.067.813-.067,1.454,0,.45.029.727H5.2a3.227,3.227,0,0,0-.574-1.521,1.344,1.344,0,0,0-1.071-.44H3.239a1.394,1.394,0,0,0-.43.048.287.287,0,0,0-.182.187,1.488,1.488,0,0,0-.048.445v2.411h.335a.883.883,0,0,0,.77-.373,2.331,2.331,0,0,0,.368-.89h.22q-.029.4-.029.9v.459q0,.488.057,1.358H4.08q-.2-1.263-1.167-1.263H2.578v2.2a1.426,1.426,0,0,0,.081.56.422.422,0,0,0,.287.234A2.909,2.909,0,0,0,3.6-.524v.21Q2.425-.342,1.851-.342q-.478,0-1.205.019L.34-.313V-.5A1.661,1.661,0,0,0,.8-.581.331.331,0,0,0,1-.8a1.877,1.877,0,0,0,.053-.526V-6.072A1.877,1.877,0,0,0,1-6.6a.331.331,0,0,0-.2-.22A1.661,1.661,0,0,0,.34-6.895v-.191q1.033.029,3.119.029Q4.865-7.057,5.458-7.086Zm12.379.191a1.015,1.015,0,0,0-.464.163.6.6,0,0,0-.2.364,3.832,3.832,0,0,0-.053.737V-3.1a4.082,4.082,0,0,1-.392,2.028,1.726,1.726,0,0,1-.746.655,2.747,2.747,0,0,1-1.2.234,2.738,2.738,0,0,1-1.722-.478,1.725,1.725,0,0,1-.593-.894,5.839,5.839,0,0,1-.153-1.516v-3a1.877,1.877,0,0,0-.053-.526.331.331,0,0,0-.2-.22,1.661,1.661,0,0,0-.464-.077v-.191q.488.029,1.492.029t1.521-.029v.191a1.906,1.906,0,0,0-.5.077.344.344,0,0,0-.215.22,1.727,1.727,0,0,0-.057.526v3.606A2.9,2.9,0,0,0,14.13-.988a1.11,1.11,0,0,0,1.028.474,1.45,1.45,0,0,0,1.349-.646A3.547,3.547,0,0,0,16.9-2.992V-5.517a3.687,3.687,0,0,0-.067-.823.605.605,0,0,0-.258-.387,1.509,1.509,0,0,0-.6-.167v-.191q.364.029,1.033.029.536,0,.832-.029ZM30.56-.734A1.582,1.582,0,0,1,30-.308a1.792,1.792,0,0,1-.717.129,1.455,1.455,0,0,1-.875-.234,1.185,1.185,0,0,1-.416-.8l-.172-.957a3.654,3.654,0,0,0-.3-1.028.615.615,0,0,0-.588-.33h-.622v2.2a1.877,1.877,0,0,0,.053.526.332.332,0,0,0,.2.22A1.635,1.635,0,0,0,27.03-.5v.191q-.517-.029-1.444-.029-1.024,0-1.511.029V-.5a1.661,1.661,0,0,0,.464-.077.331.331,0,0,0,.2-.22,1.877,1.877,0,0,0,.053-.526V-6.072a1.877,1.877,0,0,0-.053-.526.331.331,0,0,0-.2-.22,1.661,1.661,0,0,0-.464-.077v-.191q.488.029,1.454.029l1.062-.01q.191-.01.44-.01a3.691,3.691,0,0,1,1.985.43,1.384,1.384,0,0,1,.665,1.234,1.672,1.672,0,0,1-.5,1.2,2.662,2.662,0,0,1-1.645.651,2.661,2.661,0,0,1,1.282.373,1.383,1.383,0,0,1,.545.89l.22.985a1.634,1.634,0,0,0,.177.536.319.319,0,0,0,.282.153.457.457,0,0,0,.2-.057.872.872,0,0,0,.187-.163ZM26.905-6.895a.807.807,0,0,0-.378.067.371.371,0,0,0-.167.239,2.072,2.072,0,0,0-.048.517v2.353h.411A1.229,1.229,0,0,0,27.8-4.135a2.021,2.021,0,0,0,.292-1.172,2.09,2.09,0,0,0-.277-1.186A1.025,1.025,0,0,0,26.905-6.895Zm15.832,0a1.015,1.015,0,0,0-.464.163.6.6,0,0,0-.2.364,3.832,3.832,0,0,0-.053.737V-.294L41.79-.3l-.258.01L37.38-5.555v3.673a4.274,4.274,0,0,0,.057.827.569.569,0,0,0,.249.383,1.552,1.552,0,0,0,.622.167v.191q-.373-.029-1.033-.029-.526,0-.832.029V-.5a1.015,1.015,0,0,0,.464-.163.6.6,0,0,0,.2-.364,3.833,3.833,0,0,0,.053-.737v-4.3a1.877,1.877,0,0,0-.053-.526.331.331,0,0,0-.2-.22,1.661,1.661,0,0,0-.464-.077v-.191q.306.029.832.029.478,0,.823-.029l3.7,4.563V-5.517a4.273,4.273,0,0,0-.057-.827.569.569,0,0,0-.249-.383,1.552,1.552,0,0,0-.622-.167v-.191q.373.029,1.033.029.536,0,.832-.029Zm9.3,0a1.635,1.635,0,0,0-.469.077.332.332,0,0,0-.2.22,1.877,1.877,0,0,0-.053.526v4.745a1.877,1.877,0,0,0,.053.526.332.332,0,0,0,.2.22,1.635,1.635,0,0,0,.469.077v.191q-.517-.029-1.445-.029-1.024,0-1.511.029V-.5a1.661,1.661,0,0,0,.464-.077.331.331,0,0,0,.2-.22,1.877,1.877,0,0,0,.053-.526V-6.072a1.877,1.877,0,0,0-.053-.526.331.331,0,0,0-.2-.22,1.661,1.661,0,0,0-.464-.077v-.191q.488.029,1.511.029.928,0,1.445-.029Zm12.2-.191q-.067.909-.067,1.626,0,.45.029.727h-.22a3.822,3.822,0,0,0-.627-1.655,1.336,1.336,0,0,0-1.086-.478h-.22V-1.4a1.532,1.532,0,0,0,.081.584.434.434,0,0,0,.287.244,2.677,2.677,0,0,0,.655.072v.191Q61.86-.342,61.248-.342T59.5-.313V-.5a2.677,2.677,0,0,0,.655-.072A.434.434,0,0,0,60.44-.82a1.531,1.531,0,0,0,.081-.584V-6.866h-.21a1.439,1.439,0,0,0-.78.2,1.585,1.585,0,0,0-.55.665,5.306,5.306,0,0,0-.392,1.268h-.22q.029-.277.029-.727,0-.717-.067-1.626.871.029,2.956.029T64.233-7.086Zm12.407.191a1.015,1.015,0,0,0-.464.163.6.6,0,0,0-.2.364,3.831,3.831,0,0,0-.053.737V-3.1a4.082,4.082,0,0,1-.392,2.028,1.726,1.726,0,0,1-.746.655,2.747,2.747,0,0,1-1.2.234,2.738,2.738,0,0,1-1.722-.478,1.725,1.725,0,0,1-.593-.894,5.839,5.839,0,0,1-.153-1.516v-3a1.876,1.876,0,0,0-.053-.526.331.331,0,0,0-.2-.22,1.661,1.661,0,0,0-.464-.077v-.191q.488.029,1.492.029t1.521-.029v.191a1.906,1.906,0,0,0-.5.077.344.344,0,0,0-.215.22,1.727,1.727,0,0,0-.057.526v3.606a2.9,2.9,0,0,0,.292,1.478,1.11,1.11,0,0,0,1.028.474A1.45,1.45,0,0,0,75.31-1.16,3.547,3.547,0,0,0,75.7-2.992V-5.517a3.687,3.687,0,0,0-.067-.823.605.605,0,0,0-.258-.387,1.509,1.509,0,0,0-.6-.167v-.191q.364.029,1.033.029.536,0,.832-.029ZM89.363-.734a1.582,1.582,0,0,1-.555.426,1.792,1.792,0,0,1-.717.129,1.455,1.455,0,0,1-.875-.234,1.185,1.185,0,0,1-.416-.8l-.172-.957a3.655,3.655,0,0,0-.3-1.028.615.615,0,0,0-.588-.33h-.622v2.2a1.877,1.877,0,0,0,.053.526.332.332,0,0,0,.2.22,1.635,1.635,0,0,0,.469.077v.191q-.517-.029-1.444-.029-1.024,0-1.511.029V-.5a1.661,1.661,0,0,0,.464-.077.331.331,0,0,0,.2-.22,1.877,1.877,0,0,0,.053-.526V-6.072a1.877,1.877,0,0,0-.053-.526.331.331,0,0,0-.2-.22,1.661,1.661,0,0,0-.464-.077v-.191q.488.029,1.454.029l1.062-.01q.191-.01.44-.01a3.691,3.691,0,0,1,1.985.43,1.384,1.384,0,0,1,.665,1.234,1.672,1.672,0,0,1-.5,1.2,2.662,2.662,0,0,1-1.645.651,2.661,2.661,0,0,1,1.282.373,1.383,1.383,0,0,1,.545.89l.22.985a1.635,1.635,0,0,0,.177.536.319.319,0,0,0,.282.153.457.457,0,0,0,.2-.057.871.871,0,0,0,.187-.163ZM85.709-6.895a.807.807,0,0,0-.378.067.371.371,0,0,0-.167.239,2.072,2.072,0,0,0-.048.517v2.353h.411A1.229,1.229,0,0,0,86.6-4.135,2.021,2.021,0,0,0,86.9-5.307a2.09,2.09,0,0,0-.277-1.186A1.025,1.025,0,0,0,85.709-6.895Zm14.77,5.127a12.957,12.957,0,0,0,.067,1.454q-.65-.029-2.191-.029-2.085,0-3.119.029V-.5A1.661,1.661,0,0,0,95.7-.581a.331.331,0,0,0,.2-.22,1.877,1.877,0,0,0,.053-.526V-6.072A1.877,1.877,0,0,0,95.9-6.6a.331.331,0,0,0-.2-.22,1.661,1.661,0,0,0-.464-.077v-.191q1.033.029,3.119.029,1.406,0,2-.029-.067.794-.067,1.416a5.594,5.594,0,0,0,.029.651h-.22a2.729,2.729,0,0,0-.517-1.435,1.348,1.348,0,0,0-1.052-.411h-.392a1.394,1.394,0,0,0-.43.048.287.287,0,0,0-.182.187,1.488,1.488,0,0,0-.048.445v2.372h.306a.883.883,0,0,0,.77-.373,2.331,2.331,0,0,0,.368-.89h.22q-.029.4-.029.9v.459q0,.488.057,1.358h-.22q-.2-1.263-1.167-1.263h-.306v2.411a1.488,1.488,0,0,0,.048.445.287.287,0,0,0,.182.187,1.394,1.394,0,0,0,.43.048H98.6A1.4,1.4,0,0,0,99.7-1a3.089,3.089,0,0,0,.588-1.574h.22Q100.479-2.255,100.479-1.767Zm22.643-4.1a1.34,1.34,0,0,1-.493,1.1,3.433,3.433,0,0,1-1.449.6l-.172.057a1.367,1.367,0,0,1,.66.612,2.006,2.006,0,0,1,.23.976,1.909,1.909,0,0,1-.411,1.2,2.734,2.734,0,0,1-1.162.837,4.546,4.546,0,0,1-1.727.306,5.465,5.465,0,0,1-1.851-.287,2.717,2.717,0,0,1-1.234-.827,1.96,1.96,0,0,1-.435-1.268,1.735,1.735,0,0,1,.344-1.1,2.416,2.416,0,0,1,.78-.674,3.691,3.691,0,0,1,.818-.325q-1.081-.43-1.081-1.205a1.016,1.016,0,0,1,.564-.914,2.607,2.607,0,0,1,1.339-.33,2.94,2.94,0,0,1,.584.048,1.375,1.375,0,0,1,.411.153,1.26,1.26,0,0,1,.421.316.686.686,0,0,1,.163.459.562.562,0,0,1-.215.454.794.794,0,0,1-.521.177.792.792,0,0,1-.5-.153.525.525,0,0,1-.2-.44.644.644,0,0,1,.172-.435.741.741,0,0,1,.44-.244.65.65,0,0,0-.258-.124,1.39,1.39,0,0,0-.373-.048,1.184,1.184,0,0,0-.861.325,1.234,1.234,0,0,0-.335.928,1.426,1.426,0,0,0,.373.976,2.775,2.775,0,0,1,.536-.077.417.417,0,0,1,.263.072.227.227,0,0,1,.091.187.17.17,0,0,1-.077.148.33.33,0,0,1-.191.053.613.613,0,0,1-.277-.067q-.134-.067-.335-.182a2.033,2.033,0,0,0-.751.617,1.565,1.565,0,0,0-.263.933,1.534,1.534,0,0,0,.741,1.392,3.858,3.858,0,0,0,2.052.464,4.1,4.1,0,0,0,1.268-.2,2.414,2.414,0,0,0,.985-.574,1.223,1.223,0,0,0,.378-.894,1.221,1.221,0,0,0-.727-1.215l-.612.172-.536.153a4.944,4.944,0,0,0-1.177.383.607.607,0,0,0-.373.545.65.65,0,0,0,.32.56,1.25,1.25,0,0,0,.713.215.965.965,0,0,0,.225-.029.352.352,0,0,0,.158-.067.715.715,0,0,1-.354-.239.627.627,0,0,1-.124-.392.555.555,0,0,1,.215-.464.87.87,0,0,1,.55-.167.777.777,0,0,1,.54.177.607.607,0,0,1,.2.474.707.707,0,0,1-.383.651,1.938,1.938,0,0,1-.976.22,1.611,1.611,0,0,1-1.019-.316,1.082,1.082,0,0,1-.407-.909,1.362,1.362,0,0,1,.545-1.138,3.778,3.778,0,0,1,1.6-.622l.411-.105q.622-.143,1.014-.277a4.076,4.076,0,0,0,1.091-.4.633.633,0,0,0,.354-.55.751.751,0,0,0-.33-.622,1.215,1.215,0,0,0-.751-.249.638.638,0,0,0-.277.048.763.763,0,0,1,.344.254.578.578,0,0,1,.124.349.532.532,0,0,1-.215.45.887.887,0,0,1-.55.163.829.829,0,0,1-.54-.167.565.565,0,0,1-.206-.464A.671.671,0,0,1,120.731-7a1.557,1.557,0,0,1,.871-.215,1.633,1.633,0,0,1,1.1.359A1.238,1.238,0,0,1,123.122-5.871Zm22.414-1.024a1.635,1.635,0,0,0-.469.077.332.332,0,0,0-.2.22,1.876,1.876,0,0,0-.053.526v4.745a1.876,1.876,0,0,0,.053.526.331.331,0,0,0,.2.22,1.661,1.661,0,0,0,.464.077v.191q-.526-.029-1.5-.029-1.024,0-1.511.029V-.5a1.906,1.906,0,0,0,.5-.077.344.344,0,0,0,.215-.22,1.727,1.727,0,0,0,.057-.526v-5L140.992-.3h-.153l-2.583-6.161v4.582a4.275,4.275,0,0,0,.057.827.569.569,0,0,0,.249.383,1.552,1.552,0,0,0,.622.167v.191q-.373-.029-1.033-.029-.526,0-.832.029V-.5a1.015,1.015,0,0,0,.464-.163.6.6,0,0,0,.2-.364,3.83,3.83,0,0,0,.053-.737v-4.3a1.876,1.876,0,0,0-.053-.526.331.331,0,0,0-.2-.22,1.661,1.661,0,0,0-.464-.077v-.191q.306.029.832.029.88,0,1.511-.029l1.932,4.659,1.76-4.63h.679q.976,0,1.5-.029Zm11.9,5.778a1.185,1.185,0,0,0,.287.459.539.539,0,0,0,.316.153v.191q-.574-.029-1.454-.029-.976,0-1.454.029V-.5a1.514,1.514,0,0,0,.517-.091.257.257,0,0,0,.153-.254,1.323,1.323,0,0,0-.115-.459l-.574-1.569h-2.085l-.249.66a3.216,3.216,0,0,0-.268,1.062.541.541,0,0,0,.215.493,1.3,1.3,0,0,0,.636.158v.191q-.651-.029-1.186-.029-.44,0-.727.029V-.5q.469-.086.823-1l2.181-5.6q.105.01.335.01t.325-.01Zm-2.392-1.952L154.1-5.651,153.1-3.068ZM169.2-7.086q-.067.909-.067,1.626,0,.45.029.727h-.22a3.821,3.821,0,0,0-.627-1.655,1.336,1.336,0,0,0-1.086-.478h-.22V-1.4a1.532,1.532,0,0,0,.081.584.434.434,0,0,0,.287.244,2.677,2.677,0,0,0,.655.072v.191q-1.205-.029-1.818-.029t-1.751.029V-.5a2.677,2.677,0,0,0,.655-.072.434.434,0,0,0,.287-.244,1.532,1.532,0,0,0,.081-.584V-6.866h-.21a1.439,1.439,0,0,0-.78.2,1.585,1.585,0,0,0-.55.665,5.306,5.306,0,0,0-.392,1.268h-.22q.029-.277.029-.727,0-.717-.067-1.626.871.029,2.956.029T169.2-7.086Zm12.13,0q-.067.909-.067,1.626,0,.45.029.727h-.22a3.821,3.821,0,0,0-.627-1.655,1.336,1.336,0,0,0-1.086-.478h-.22V-1.4a1.532,1.532,0,0,0,.081.584.435.435,0,0,0,.287.244,2.677,2.677,0,0,0,.655.072v.191q-1.205-.029-1.818-.029T176.6-.313V-.5a2.677,2.677,0,0,0,.655-.072.435.435,0,0,0,.287-.244,1.532,1.532,0,0,0,.081-.584V-6.866h-.21a1.439,1.439,0,0,0-.78.2,1.585,1.585,0,0,0-.55.665,5.305,5.305,0,0,0-.392,1.268h-.22q.029-.277.029-.727,0-.717-.067-1.626.871.029,2.956.029T181.333-7.086Zm12.8,6.352a1.582,1.582,0,0,1-.555.426,1.792,1.792,0,0,1-.717.129,1.455,1.455,0,0,1-.875-.234,1.185,1.185,0,0,1-.416-.8l-.172-.957a3.654,3.654,0,0,0-.3-1.028.615.615,0,0,0-.588-.33h-.622v2.2a1.878,1.878,0,0,0,.053.526.332.332,0,0,0,.2.22A1.635,1.635,0,0,0,190.6-.5v.191q-.517-.029-1.444-.029-1.024,0-1.511.029V-.5a1.66,1.66,0,0,0,.464-.077.331.331,0,0,0,.2-.22,1.876,1.876,0,0,0,.053-.526V-6.072a1.876,1.876,0,0,0-.053-.526.331.331,0,0,0-.2-.22,1.66,1.66,0,0,0-.464-.077v-.191q.488.029,1.454.029l1.062-.01q.191-.01.44-.01a3.691,3.691,0,0,1,1.985.43,1.384,1.384,0,0,1,.665,1.234,1.672,1.672,0,0,1-.5,1.2,2.662,2.662,0,0,1-1.645.651,2.661,2.661,0,0,1,1.282.373,1.383,1.383,0,0,1,.545.89l.22.985a1.634,1.634,0,0,0,.177.536.319.319,0,0,0,.282.153.457.457,0,0,0,.2-.057A.872.872,0,0,0,194-.849Zm-3.654-6.161a.807.807,0,0,0-.378.067.371.371,0,0,0-.167.239,2.072,2.072,0,0,0-.048.517v2.353h.411a1.229,1.229,0,0,0,1.076-.416,2.021,2.021,0,0,0,.292-1.172,2.09,2.09,0,0,0-.277-1.186A1.025,1.025,0,0,0,190.478-6.895Zm14.77,5.127a12.955,12.955,0,0,0,.067,1.454q-.65-.029-2.191-.029-2.085,0-3.119.029V-.5a1.661,1.661,0,0,0,.464-.077.331.331,0,0,0,.2-.22,1.876,1.876,0,0,0,.053-.526V-6.072a1.876,1.876,0,0,0-.053-.526.331.331,0,0,0-.2-.22,1.661,1.661,0,0,0-.464-.077v-.191q1.033.029,3.119.029,1.406,0,2-.029-.067.794-.067,1.416a5.6,5.6,0,0,0,.029.651h-.22a2.729,2.729,0,0,0-.517-1.435,1.348,1.348,0,0,0-1.052-.411H202.9a1.394,1.394,0,0,0-.43.048.287.287,0,0,0-.182.187,1.488,1.488,0,0,0-.048.445v2.372h.306a.883.883,0,0,0,.77-.373,2.331,2.331,0,0,0,.368-.89h.22q-.029.4-.029.9v.459q0,.488.057,1.358h-.22q-.2-1.263-1.167-1.263h-.306v2.411a1.488,1.488,0,0,0,.048.445.287.287,0,0,0,.182.187,1.394,1.394,0,0,0,.43.048h.469a1.4,1.4,0,0,0,1.1-.464,3.09,3.09,0,0,0,.588-1.574h.22Q205.248-2.255,205.248-1.767ZM214.2-7.21a2.665,2.665,0,0,1,.794.1,2.972,2.972,0,0,1,.6.277q.105.057.187.1a.339.339,0,0,0,.139.038.148.148,0,0,0,.134-.1,1.143,1.143,0,0,0,.077-.32h.22q-.048.641-.048,2.181h-.22a3.136,3.136,0,0,0-.234-.985,1.909,1.909,0,0,0-.555-.761,1.287,1.287,0,0,0-.837-.292,1.092,1.092,0,0,0-.761.263.912.912,0,0,0-.292.713,1.147,1.147,0,0,0,.144.584,1.618,1.618,0,0,0,.4.454q.258.206.794.56l.306.21a9.386,9.386,0,0,1,.89.651,2.347,2.347,0,0,1,.531.646,1.727,1.727,0,0,1,.206.856,1.652,1.652,0,0,1-.316,1.028,1.92,1.92,0,0,1-.856.627,3.284,3.284,0,0,1-1.2.21,3.478,3.478,0,0,1-.89-.1,2.945,2.945,0,0,1-.651-.258.692.692,0,0,0-.325-.134.148.148,0,0,0-.134.1,1.142,1.142,0,0,0-.077.32h-.22q.038-.6.038-2.583h.22a3.716,3.716,0,0,0,.478,1.736,1.382,1.382,0,0,0,1.263.665,1.29,1.29,0,0,0,.851-.277A.973.973,0,0,0,215.2-1.5a1.325,1.325,0,0,0-.344-.918,5.473,5.473,0,0,0-1.091-.861q-.574-.373-.918-.651a2.36,2.36,0,0,1-.564-.655,1.708,1.708,0,0,1-.22-.875,1.594,1.594,0,0,1,.292-.971,1.724,1.724,0,0,1,.78-.588A2.91,2.91,0,0,1,214.2-7.21Zm11.326,0a2.665,2.665,0,0,1,.794.1,2.972,2.972,0,0,1,.6.277q.105.057.187.1a.339.339,0,0,0,.139.038.148.148,0,0,0,.134-.1,1.141,1.141,0,0,0,.077-.32h.22q-.048.641-.048,2.181h-.22a3.136,3.136,0,0,0-.234-.985,1.909,1.909,0,0,0-.555-.761,1.287,1.287,0,0,0-.837-.292,1.092,1.092,0,0,0-.761.263.912.912,0,0,0-.292.713,1.147,1.147,0,0,0,.143.584,1.618,1.618,0,0,0,.4.454q.258.206.794.56l.306.21a9.384,9.384,0,0,1,.89.651,2.347,2.347,0,0,1,.531.646,1.727,1.727,0,0,1,.206.856,1.652,1.652,0,0,1-.316,1.028,1.92,1.92,0,0,1-.856.627,3.284,3.284,0,0,1-1.2.21,3.478,3.478,0,0,1-.89-.1,2.946,2.946,0,0,1-.651-.258.692.692,0,0,0-.325-.134.148.148,0,0,0-.134.1,1.142,1.142,0,0,0-.077.32h-.22q.038-.6.038-2.583h.22a3.716,3.716,0,0,0,.478,1.736,1.382,1.382,0,0,0,1.263.665,1.29,1.29,0,0,0,.851-.277.973.973,0,0,0,.335-.794,1.325,1.325,0,0,0-.344-.918,5.473,5.473,0,0,0-1.091-.861q-.574-.373-.918-.651a2.361,2.361,0,0,1-.564-.655,1.708,1.708,0,0,1-.22-.875,1.6,1.6,0,0,1,.292-.971,1.725,1.725,0,0,1,.78-.588A2.91,2.91,0,0,1,225.529-7.21Z" transform="translate(-0.53 48.178)" fill="#4e245e"/>
    </g>
  </g>
</svg>
