<svg xmlns="http://www.w3.org/2000/svg" width="21.669" height="20.775" viewBox="0 0 21.669 20.775">
  <g id="cart" transform="translate(1 1)">
    <path id="Path_22" data-name="Path 22" d="M14.044,31.022A1.022,1.022,0,1,1,13.022,30,1.022,1.022,0,0,1,14.044,31.022Z" transform="translate(-5.831 -13.268)" fill="#919eab" stroke="#4e245e" stroke-linecap="round" stroke-linejoin="round" stroke-width="2"/>
    <path id="Path_23" data-name="Path 23" d="M30.544,31.022A1.022,1.022,0,1,1,29.522,30,1.022,1.022,0,0,1,30.544,31.022Z" transform="translate(-12.918 -13.268)" fill="#919eab" stroke="#4e245e" stroke-linecap="round" stroke-linejoin="round" stroke-width="2"/>
    <path id="Path_24" data-name="Path 24" d="M1.5,1.5H5.076l2.4,11.287A1.767,1.767,0,0,0,9.26,14.144h8.69a1.767,1.767,0,0,0,1.788-1.357l1.43-7.072H5.97" transform="translate(-1.5 -1.5)" fill="none" stroke="#4e245e" stroke-linecap="round" stroke-linejoin="round" stroke-width="2"/>
  </g>
</svg>
