<?xml version="1.0" standalone="no"?>
<!DOCTYPE svg PUBLIC "-//W3C//DTD SVG 20010904//EN"
 "http://www.w3.org/TR/2001/REC-SVG-20010904/DTD/svg10.dtd">
<svg version="1.0" xmlns="http://www.w3.org/2000/svg"
 width="228.000000pt" height="50.000000pt" viewBox="0 0 228.000000 50.000000"
 preserveAspectRatio="xMidYMid meet">

<g transform="translate(0.000000,50.000000) scale(0.100000,-0.100000)"
fill="#000000" stroke="none">
<path d="M1788 489 c-16 -9 -18 -27 -18 -139 l0 -130 25 0 25 0 0 140 c0 77
-3 140 -7 140 -5 0 -16 -5 -25 -11z"/>
<path d="M0 355 l0 -135 25 0 c25 0 25 1 25 87 l0 87 62 -87 c47 -67 67 -87
85 -87 23 0 23 0 23 135 l0 135 -25 0 c-25 0 -25 -1 -25 -80 0 -44 -3 -80 -7
-80 -5 1 -32 37 -62 80 -42 62 -59 80 -78 80 -23 0 -23 0 -23 -135z"/>
<path d="M1140 355 l0 -135 50 0 c103 0 170 54 170 136 0 86 -56 134 -156 134
l-64 0 0 -135z m145 60 c50 -49 17 -131 -55 -137 l-35 -3 -3 69 c-2 38 -1 75
2 83 9 22 64 15 91 -12z"/>
<path d="M2181 461 c-10 -6 -12 -30 -10 -96 4 -83 5 -88 37 -116 41 -37 67
-38 67 -4 0 14 -5 25 -11 25 -20 0 -44 36 -44 68 0 27 4 32 25 32 33 0 35 37
3 42 -17 2 -24 11 -26 31 -3 28 -16 33 -41 18z"/>
<path d="M505 413 c-11 -3 -30 -14 -42 -25 -68 -63 -9 -181 82 -164 19 4 37
11 41 17 10 17 -17 39 -41 33 -13 -3 -32 -1 -42 5 -14 8 -3 10 50 11 l67 0 0
31 c0 43 -16 69 -55 85 -19 8 -36 13 -37 13 -2 -1 -12 -3 -23 -6z m39 -49 c28
-11 17 -24 -20 -24 -31 0 -35 2 -24 15 14 17 21 18 44 9z"/>
<path d="M640 321 l0 -101 25 0 c24 0 25 2 25 65 0 52 4 67 16 72 33 12 49
-11 52 -76 3 -57 4 -61 27 -61 24 0 25 3 25 60 0 100 -20 123 -117 135 l-53 7
0 -101z"/>
<path d="M878 405 c-35 -19 -48 -44 -48 -90 0 -51 36 -85 91 -85 37 0 40 -2
28 -16 -8 -10 -22 -14 -40 -10 -38 7 -62 -20 -34 -40 38 -28 103 -10 126 34 8
14 14 55 14 93 0 60 -3 72 -25 94 -32 31 -77 40 -112 20z m72 -55 c11 -11 20
-24 20 -30 0 -13 -37 -50 -50 -50 -13 0 -50 37 -50 50 0 13 37 50 50 50 6 0
19 -9 30 -20z"/>
<path d="M1430 402 c-42 -21 -62 -57 -55 -97 11 -60 73 -97 128 -76 49 19 28
54 -25 44 -14 -3 -29 0 -32 6 -5 8 12 11 54 11 55 0 64 -3 86 -29 28 -34 69
-46 107 -32 49 19 28 54 -25 44 -14 -3 -29 0 -32 6 -5 8 12 11 53 11 33 0 62
4 65 8 10 16 -15 81 -37 97 -34 24 -94 19 -122 -10 -14 -13 -25 -30 -25 -37 0
-7 -9 1 -19 18 -14 23 -63 54 -85 54 -1 0 -17 -8 -36 -18z m66 -47 c18 -13 16
-14 -26 -14 -42 0 -44 1 -26 14 11 8 23 15 26 15 3 0 15 -7 26 -15z m178 9
c26 -10 18 -24 -14 -24 -30 0 -41 14 -17 23 6 3 13 6 14 6 1 1 8 -2 17 -5z"/>
<path d="M1915 411 c-49 -14 -75 -48 -75 -99 0 -35 37 -78 74 -88 26 -6 86 12
86 26 0 16 -30 31 -49 25 -11 -3 -29 -2 -38 4 -14 8 -2 10 50 11 l67 0 0 29
c0 56 -63 106 -115 92z m39 -47 c28 -11 17 -24 -19 -24 -34 0 -47 13 -22 23
18 8 23 8 41 1z"/>
<path d="M2085 388 c-32 -30 -34 -38 -37 -98 -2 -59 0 -65 19 -68 18 -3 21 3
25 54 4 46 10 62 31 80 29 25 36 64 12 64 -8 0 -31 -15 -50 -32z"/>
<path d="M250 343 c1 -70 10 -91 47 -111 35 -19 63 -14 94 17 26 27 29 36 29
95 0 63 -1 66 -25 66 -23 0 -24 -4 -27 -61 -2 -45 -8 -65 -20 -72 -30 -19 -48
8 -48 74 0 56 -1 59 -25 59 -24 0 -25 -2 -25 -67z"/>
<path d="M12 60 c0 -19 2 -27 5 -17 2 9 2 25 0 35 -3 9 -5 1 -5 -18z"/>
<path d="M122 60 c0 -19 2 -27 5 -17 2 9 2 25 0 35 -3 9 -5 1 -5 -18z"/>
<path d="M240 60 c0 -16 5 -30 10 -30 6 0 10 14 10 30 0 17 -4 30 -10 30 -5 0
-10 -13 -10 -30z"/>
<path d="M274 60 c3 -43 14 -48 14 -6 0 20 -4 36 -8 36 -4 0 -7 -13 -6 -30z"/>
<path d="M370 84 c0 -5 9 -20 20 -34 14 -18 20 -21 20 -9 0 9 -9 24 -20 34
-11 10 -20 14 -20 9z"/>
<path d="M490 60 c0 -16 5 -30 10 -30 6 0 10 14 10 30 0 17 -4 30 -10 30 -5 0
-10 -13 -10 -30z"/>
<path d="M602 60 c0 -19 2 -27 5 -17 2 9 2 25 0 35 -3 9 -5 1 -5 -18z"/>
<path d="M712 60 c0 -19 2 -27 5 -17 2 9 2 25 0 35 -3 9 -5 1 -5 -18z"/>
<path d="M830 58 c0 -23 3 -29 9 -19 8 12 4 51 -5 51 -2 0 -4 -15 -4 -32z"/>
<path d="M860 62 c0 -18 4 -32 9 -32 5 0 8 11 7 25 -4 38 -16 43 -16 7z"/>
<path d="M962 60 c0 -19 2 -27 5 -17 2 9 2 25 0 35 -3 9 -5 1 -5 -18z"/>
<path d="M1204 82 c3 -6 -2 -13 -11 -15 -16 -4 -16 -5 -1 -6 21 -1 32 15 17
25 -7 4 -9 3 -5 -4z"/>
<path d="M1381 85 c0 -18 28 -61 29 -44 0 8 -7 24 -15 35 -8 10 -14 15 -14 9z"/>
<path d="M1432 60 c0 -19 2 -27 5 -17 2 9 2 25 0 35 -3 9 -5 1 -5 -18z"/>
<path d="M1541 75 c-1 -21 15 -52 23 -45 2 3 -2 19 -9 35 -10 23 -14 25 -14
10z"/>
<path d="M1652 60 c0 -19 2 -27 5 -17 2 9 2 25 0 35 -3 9 -5 1 -5 -18z"/>
<path d="M1772 60 c0 -19 2 -27 5 -17 2 9 2 25 0 35 -3 9 -5 1 -5 -18z"/>
<path d="M1882 60 c0 -19 2 -27 5 -17 2 9 2 25 0 35 -3 9 -5 1 -5 -18z"/>
<path d="M1908 72 c-6 -22 1 -42 15 -42 8 0 8 3 -1 12 -8 8 -8 15 -1 24 6 7 6
14 1 18 -6 3 -12 -2 -14 -12z"/>
<path d="M2000 60 c0 -16 5 -30 10 -30 6 0 10 14 10 30 0 17 -4 30 -10 30 -5
0 -10 -13 -10 -30z"/>
<path d="M2120 77 c0 -8 9 -22 20 -32 11 -10 20 -13 20 -7 0 7 -9 21 -20 32
-14 14 -20 16 -20 7z"/>
<path d="M2230 80 c0 -5 9 -19 20 -30 11 -11 20 -15 20 -10 0 6 -9 19 -20 30
-11 11 -20 16 -20 10z"/>
<path d="M1150 45 c0 -8 4 -15 10 -15 5 0 7 7 4 15 -4 8 -8 15 -10 15 -2 0 -4
-7 -4 -15z"/>
</g>
</svg>
