<svg xmlns="http://www.w3.org/2000/svg" width="21.77" height="21.77" viewBox="0 0 21.77 21.77">
  <path id="Icon_material-shopping-cart" data-name="Icon material-shopping-cart" d="M8.031,20.416a2.177,2.177,0,1,0,2.177,2.177A2.174,2.174,0,0,0,8.031,20.416ZM1.5,3V5.177H3.677L7.6,13.439,6.126,16.106a2.1,2.1,0,0,0-.272,1.045,2.183,2.183,0,0,0,2.177,2.177H21.093V17.151H8.488a.269.269,0,0,1-.272-.272l.033-.131.98-1.774h8.109a2.167,2.167,0,0,0,1.9-1.121l3.9-7.064a1.063,1.063,0,0,0,.131-.522,1.092,1.092,0,0,0-1.089-1.089H6.083L5.059,3ZM18.916,20.416a2.177,2.177,0,1,0,2.177,2.177A2.174,2.174,0,0,0,18.916,20.416Z" transform="translate(-1.5 -3)" fill="#4e245e"/>
</svg>
