<svg id="facebook" xmlns="http://www.w3.org/2000/svg" width="17.77" height="17.77" viewBox="0 0 17.77 17.77">
  <path id="Path_196" data-name="Path 196" d="M17.77,8.885A8.885,8.885,0,1,0,7.5,17.662V11.454H5.241V8.885H7.5V6.928a3.135,3.135,0,0,1,3.356-3.457,13.663,13.663,0,0,1,1.989.174V5.831h-1.12a1.284,1.284,0,0,0-1.448,1.388V8.885h2.464l-.394,2.568h-2.07v6.209A8.887,8.887,0,0,0,17.77,8.885Z" fill="#1877f2"/>
  <path id="Path_197" data-name="Path 197" d="M309.1,207.983l.394-2.568h-2.464v-1.667a1.284,1.284,0,0,1,1.448-1.388h1.12v-2.187a13.663,13.663,0,0,0-1.989-.174,3.135,3.135,0,0,0-3.356,3.457v1.958H302v2.568h2.256v6.209a8.979,8.979,0,0,0,2.777,0v-6.209Z" transform="translate(-296.759 -196.529)" fill="#fff"/>
</svg>
