<svg width="208" height="43" viewBox="0 0 208 43" fill="none" xmlns="http://www.w3.org/2000/svg">
<path d="M143.023 14.7151C143.367 13.3746 143.978 12.1183 144.819 11.0221C147.257 7.89086 151.828 6.77524 155.384 8.51592C158.788 10.1795 160.503 12.9487 160.568 16.7525C160.568 17.3281 160.544 17.9057 160.568 18.4794C160.591 18.8631 160.454 18.9383 160.098 18.9363C156.302 18.9244 152.506 18.9363 148.701 18.9363H148.084C148.374 19.4081 148.753 19.8175 149.2 20.1411C149.647 20.4646 150.154 20.6958 150.69 20.8214C151.362 21.0064 152.07 21.0156 152.747 20.848C153.424 20.6805 154.047 20.3418 154.557 19.864C154.753 19.6879 154.879 19.6306 155.111 19.864C156.021 20.762 156.954 21.6442 157.89 22.5067C158.104 22.7045 158.121 22.8113 157.89 23.0368C156.482 24.4076 154.662 25.2691 152.715 25.486C150.768 25.703 148.805 25.2631 147.133 24.2355C145.33 23.1623 143.984 21.4571 143.353 19.4466C143.223 19.051 143.042 18.9066 142.602 18.9106C138.839 18.9323 135.075 18.9224 131.312 18.9224H130.722C131.012 19.4592 131.439 19.908 131.96 20.222C133.729 21.3416 135.666 21.1834 137.242 19.7967C137.421 19.6385 137.499 19.6444 137.666 19.7967C138.613 20.7027 139.572 21.5948 140.531 22.4889C140.694 22.6412 140.781 22.7519 140.567 22.9596C137.334 26.1047 132.288 26.4845 128.667 23.4443C125.356 20.675 124.509 16.2244 126.541 12.3909C127.977 9.67901 130.296 8.14405 133.339 7.7524C137.073 7.27371 140.757 9.40802 142.345 12.8024C142.612 13.4246 142.838 14.0635 143.023 14.7151ZM137.947 14.3314C136.454 11.8074 132.923 11.5977 131.023 13.8606C130.919 13.9833 130.732 14.1158 130.787 14.2661C130.842 14.4164 131.078 14.3512 131.229 14.3512C133.307 14.3512 135.383 14.3512 137.458 14.3512C137.599 14.3551 137.743 14.3413 137.947 14.3314ZM148.1 14.3136H155.396C154.396 12.9527 153.166 12.2228 151.527 12.294C150.057 12.3593 148.955 13.0536 148.1 14.3136Z" fill="#4E245E"/>
<path d="M15.4091 16.1457V15.6196C15.4091 10.8472 15.4059 6.07351 15.3993 1.29849C15.3993 0.871234 15.4779 0.705078 15.9515 0.705078C17.2601 0.738705 18.5708 0.724859 19.8814 0.705078C20.2095 0.705078 20.3313 0.776286 20.3313 1.13629C20.3222 9.08541 20.3222 17.0359 20.3313 24.9876C20.3313 25.3358 20.2311 25.4307 19.8912 25.4248C18.6474 25.407 17.4036 25.4109 16.1578 25.4248C16.0539 25.432 15.9502 25.4101 15.8579 25.3615C15.7657 25.313 15.6885 25.2397 15.6351 25.1498C12.7977 21.1067 9.95773 17.0662 7.1151 13.0283C6.4313 12.0551 5.73964 11.0859 5.03225 10.087C4.93785 10.2643 4.90664 10.4688 4.94383 10.6665C4.94383 15.3901 4.93401 20.1137 4.94383 24.8373C4.94383 25.3219 4.81022 25.4426 4.3406 25.4307C3.06534 25.3991 1.78616 25.4089 0.512873 25.4307C0.151323 25.4307 -0.00194631 25.3694 1.86408e-05 24.95C0.0118083 17.0378 0.0118083 9.12036 1.86408e-05 1.19761C1.86408e-05 0.788154 0.141498 0.703098 0.506979 0.709032C1.67023 0.728813 2.83151 0.724856 3.9928 0.709032C4.12024 0.701923 4.24711 0.730972 4.35897 0.792867C4.47082 0.854763 4.56317 0.947025 4.62551 1.05915C7.97771 5.82229 11.3358 10.5808 14.6998 15.3347C14.8963 15.6117 15.083 15.8965 15.2736 16.1794L15.4091 16.1457Z" fill="#4E245E"/>
<path d="M104.38 13.1181C104.38 9.15013 104.38 5.18282 104.38 1.21617C104.38 0.929356 104.38 0.723639 104.773 0.727595C107.457 0.751332 110.139 0.727598 112.829 0.767159C114.947 0.792873 116.905 1.42981 118.738 2.4762C120.819 3.63755 122.491 5.42074 123.523 7.57956C125.326 11.326 125.318 15.1159 123.403 18.7971C121.516 22.4426 118.453 24.5908 114.409 25.2673C113.308 25.4217 112.196 25.4826 111.084 25.4493C109.023 25.4493 106.958 25.4334 104.899 25.4611C104.443 25.4611 104.37 25.3227 104.372 24.9092C104.386 20.9749 104.38 17.0425 104.38 13.1181ZM109.306 13.0667C109.306 15.3889 109.306 17.7092 109.296 20.0314C109.296 20.427 109.41 20.5397 109.795 20.5259C110.76 20.4923 111.727 20.5259 112.69 20.4863C117.47 20.2885 120.451 16.0753 119.819 11.953C119.347 8.87122 116.698 6.19492 113.643 5.79734C112.385 5.63316 111.126 5.76173 109.87 5.69646C109.438 5.6747 109.281 5.77954 109.292 6.25229C109.32 8.5132 109.306 10.786 109.306 13.0568V13.0667Z" fill="#4E245E"/>
<path d="M88.1987 24.4312C87.6761 24.6668 87.136 24.8612 86.5835 25.0127C83.5771 25.705 80.8518 25.165 78.4958 23.0999C76.2125 21.0981 75.2242 18.5267 75.5484 15.5339C75.8962 12.2563 77.6135 9.85294 80.6003 8.44259C83.1901 7.22015 85.8251 7.25576 88.3363 8.59292C91.3859 10.2149 93.0286 12.8259 93.0993 16.333C93.1484 18.6869 93.1248 21.0408 93.0993 23.3947C93.0737 26.2589 91.8967 28.5831 89.6606 30.3178C86.3202 32.9032 81.7733 32.7429 78.541 30.0132C78.26 29.7758 78.2777 29.6394 78.5017 29.4059C79.4095 28.4604 80.3173 27.513 81.2074 26.5477C81.4393 26.2965 81.5808 26.3657 81.8087 26.5477C84.0252 28.3319 87.4933 27.2103 88.1987 24.4312ZM80.1837 16.4201C80.1811 16.9632 80.2848 17.5016 80.4889 18.0044C80.693 18.5072 80.9935 18.9646 81.3732 19.3505C81.7529 19.7364 82.2044 20.0433 82.7019 20.2535C83.1994 20.4638 83.7332 20.5733 84.2728 20.5759C84.8123 20.5785 85.3471 20.4741 85.8466 20.2687C86.3461 20.0632 86.8004 19.7607 87.1838 19.3785C87.5672 18.9963 87.872 18.5418 88.0808 18.0409C88.2897 17.5401 88.3985 17.0028 88.4011 16.4596C88.408 15.9122 88.3059 15.369 88.101 14.8619C87.896 14.3548 87.5923 13.8941 87.2078 13.507C86.8232 13.1199 86.3656 12.8142 85.8619 12.6078C85.3582 12.4015 84.8185 12.2988 84.2747 12.3057C83.1932 12.315 82.1586 12.7513 81.3935 13.5208C80.6284 14.2903 80.194 15.3314 80.1837 16.4201Z" fill="#4E245E"/>
<path d="M173.228 18.9286C174.069 20.4279 175.998 21.237 177.698 20.873C178.451 20.7154 179.147 20.3543 179.712 19.8286C179.877 19.6763 179.973 19.5991 180.18 19.7989C181.129 20.722 182.092 21.6352 183.068 22.5385C183.296 22.7502 183.178 22.8511 183.027 22.9974C181.692 24.319 179.969 25.171 178.115 25.4265C174.354 25.9388 170.982 24.2396 169.088 20.9422C166.641 16.6835 168.357 10.9452 172.723 8.72976C175.432 7.34512 178.172 7.29171 180.85 8.69019C183.715 10.1856 185.32 12.6166 185.636 15.8765C185.723 16.7626 185.662 17.6567 185.701 18.5369C185.719 18.9484 185.505 18.9325 185.218 18.9325C182.306 18.9325 179.394 18.9325 176.482 18.9325L173.228 18.9286ZM180.402 14.3553C180.4 14.2951 180.39 14.2354 180.374 14.1773C180.003 13.6207 179.508 13.1593 178.928 12.8298C178.348 12.5004 177.7 12.3121 177.035 12.28C176.37 12.2479 175.706 12.3729 175.098 12.6449C174.489 12.917 173.953 13.3287 173.53 13.847C173.426 13.9716 173.2 14.1021 173.299 14.2881C173.377 14.4364 173.599 14.3514 173.756 14.3534C175.307 14.3534 176.859 14.3534 178.409 14.3534L180.402 14.3553Z" fill="#4E245E"/>
<path d="M44.8832 18.9288C46.1447 21.1659 49.4164 21.6288 51.2949 19.8822C51.5425 19.6507 51.6584 19.6369 51.906 19.8822C52.7922 20.7565 53.7019 21.607 54.6215 22.4536C54.8711 22.6831 54.875 22.8077 54.6215 23.0569C52.2832 25.4306 48.204 26.2218 45.1623 24.8866C42.1205 23.5515 40.2165 21.2272 39.7194 17.9021C39.1613 14.1636 40.8708 10.6051 44.2604 8.79125C47.7717 6.91408 51.57 7.4165 54.5115 10.1126C56.3782 11.8216 57.2624 14.0192 57.3233 16.5492C57.3391 17.19 57.3017 17.8349 57.3332 18.4738C57.3528 18.8516 57.229 18.9386 56.8655 18.9367C53.0692 18.9248 49.2729 18.9367 45.4688 18.9367L44.8832 18.9288ZM44.842 14.3041H52.1221C51.2222 12.9906 50.0491 12.2983 48.5498 12.2746C46.9897 12.2568 45.7675 12.9511 44.842 14.3041Z" fill="#4E245E"/>
<path d="M58.4415 16.5014C58.4415 13.7044 58.4415 10.9074 58.4415 8.11048C58.4415 7.69905 58.5535 7.57839 58.9623 7.5863C60.2067 7.61135 61.4512 7.61135 62.6957 7.5863C63.0887 7.5863 63.2321 7.71289 63.183 8.0907C63.1692 8.18762 63.183 8.2885 63.183 8.38741C63.1653 8.65642 63.183 8.76521 63.5268 8.6406C64.5909 8.22586 65.7314 8.04767 66.8702 8.11825C68.0091 8.18883 69.1193 8.50651 70.1247 9.04951C71.1302 9.59251 72.0071 10.348 72.6953 11.2641C73.3836 12.1802 73.8668 13.2354 74.112 14.3572C74.2312 14.9034 74.2879 15.4615 74.281 16.0207C74.281 18.9878 74.281 21.9449 74.2908 24.9061C74.2908 25.3017 74.2083 25.452 73.7819 25.4421C72.5558 25.4131 71.329 25.4131 70.1016 25.4421C69.6732 25.452 69.5887 25.2958 69.5907 24.9041C69.6044 22.0735 69.5907 19.2429 69.5907 16.4124C69.5907 15.2097 69.2232 14.1831 68.2152 13.4611C67.7663 13.1116 67.2285 12.8967 66.6637 12.841C66.0988 12.7854 65.5299 12.8913 65.0222 13.1466C63.8707 13.6826 63.179 14.6064 63.1712 15.9277C63.1555 18.9225 63.1555 21.9173 63.1712 24.912C63.1712 25.3076 63.0749 25.4501 62.6564 25.4421C61.4145 25.4145 60.1707 25.4184 58.923 25.4421C58.5398 25.4421 58.4219 25.3432 58.4239 24.9457C58.4553 22.1309 58.4415 19.3161 58.4415 16.5014Z" fill="#4E245E"/>
<path d="M38.5957 13.4026C38.5957 15.0641 38.6429 16.7277 38.5957 18.3872C38.4994 21.2139 36.338 24.0761 33.6991 25.0691C31.461 25.9098 29.2642 25.8445 27.1636 24.7388C24.678 23.4313 23.2337 21.3187 22.9881 18.4921C22.768 15.9503 22.9429 13.3966 22.9095 10.8469C22.8977 9.95877 22.9095 9.06667 22.9095 8.1805C22.9095 7.90753 22.9469 7.76511 23.277 7.76907C24.6013 7.78687 25.9277 7.7928 27.2521 7.76907C27.645 7.76907 27.6156 7.96687 27.6156 8.22798C27.6156 11.2729 27.6156 14.3171 27.6156 17.3606C27.6156 18.4763 27.9241 19.4613 28.8319 20.1873C29.2443 20.5417 29.7454 20.7756 30.2806 20.8635C30.8158 20.9513 31.3648 20.8899 31.8677 20.6857C32.4032 20.5011 32.876 20.1682 33.2319 19.7252C33.5878 19.2823 33.8124 18.7472 33.8798 18.1815C34.0154 17.3013 33.9368 16.4013 33.9407 15.521C33.9486 13.1026 33.9486 10.6834 33.9407 8.26358C33.9407 7.88577 34.0331 7.75918 34.4281 7.76709C35.6725 7.79215 36.917 7.79215 38.1615 7.76709C38.5544 7.7572 38.6488 7.89567 38.6448 8.26754C38.6271 9.98053 38.6448 11.6915 38.6448 13.4105L38.5957 13.4026Z" fill="#4E245E"/>
<path d="M198.267 10.3483C198.267 8.27533 198.267 6.19442 198.267 4.12736C198.257 4.06146 198.26 3.99416 198.276 3.92936C198.291 3.86455 198.32 3.80352 198.359 3.7498C198.398 3.69608 198.448 3.65074 198.504 3.6164C198.561 3.58207 198.624 3.55942 198.69 3.54977C199.959 3.14229 201.227 2.71899 202.482 2.26997C202.916 2.11569 202.993 2.22646 202.987 2.66558C202.962 4.23022 202.987 5.79288 202.969 7.35752C202.969 7.69379 203.05 7.80851 203.402 7.80258C204.793 7.7828 206.184 7.80257 207.573 7.78675C207.892 7.78675 207.998 7.86983 207.992 8.19819C207.975 9.41667 207.975 10.6345 207.992 11.8516C207.992 12.1622 207.89 12.2473 207.599 12.2354C206.208 12.2235 204.817 12.2354 203.427 12.2235C203.107 12.2235 202.962 12.273 202.969 12.6448C202.999 13.8317 202.969 15.0185 202.999 16.2053C203.037 17.4246 203.518 18.5876 204.351 19.4736C205.184 20.3596 206.311 20.907 207.518 21.012C207.894 21.0436 208.008 21.1386 208 21.5223C207.976 22.7903 207.974 24.0582 208 25.3241C208 25.7197 207.872 25.7949 207.522 25.7731C204.993 25.6576 202.613 24.539 200.9 22.6617C199.071 20.7074 198.254 18.3792 198.267 15.7207C198.275 13.9266 198.267 12.1286 198.267 10.3483Z" fill="#4E245E"/>
<path d="M166.629 12.6566C166.629 16.7373 166.629 20.818 166.641 24.8968C166.641 25.3418 166.515 25.4526 166.089 25.4427C164.863 25.413 163.635 25.415 162.409 25.4427C161.994 25.4526 161.849 25.3616 161.849 24.9066C161.864 17.2582 161.864 9.60973 161.849 1.96128C161.849 1.6349 161.927 1.46083 162.253 1.35599C163.554 0.942581 164.851 0.5173 166.138 0.0643269C166.545 -0.0780926 166.635 0.00498089 166.633 0.424327C166.624 4.50043 166.623 8.57785 166.629 12.6566Z" fill="#4E245E"/>
<path d="M186.788 20.6696C186.865 19.2632 186.67 17.5542 186.937 15.8491C187.527 12.0651 190.671 8.6114 194.404 7.69161C195.145 7.49512 195.906 7.3856 196.672 7.36523C196.925 7.36523 197.01 7.43446 197.008 7.69557C196.996 9.04196 196.996 10.3903 197.008 11.7407C197.008 12.0255 196.907 12.0868 196.644 12.1086C193.634 12.3578 191.506 14.6939 191.504 17.746C191.504 20.1474 191.494 22.5487 191.504 24.9501C191.504 25.3457 191.4 25.4486 191.015 25.4406C189.754 25.4169 188.495 25.4169 187.238 25.4406C186.857 25.4406 186.776 25.3239 186.782 24.9659C186.8 23.6347 186.788 22.3015 186.788 20.6696Z" fill="#4E245E"/>
<path d="M4.41316 37.0105V36.4134H0V42.9438H0.680362V40.173H4.00862V39.576H0.680362V37.0105H4.41316Z" fill="#4E245E"/>
<path d="M12.1238 42.9997C13.7696 42.9997 14.7625 42.0295 14.7625 40.1544V36.4134H14.1006V40.1264C14.1006 41.675 13.3834 42.384 12.1238 42.384C10.8735 42.384 10.1563 41.675 10.1563 40.1264V36.4134H9.47595V40.1544C9.47595 42.0295 10.4781 42.9997 12.1238 42.9997Z" fill="#4E245E"/>
<path d="M25.6652 42.9438L24.0931 40.7048C25.0308 40.3969 25.5641 39.6786 25.5641 38.6524C25.5641 37.253 24.5711 36.4134 22.9346 36.4134H20.5257V42.9438H21.2061V40.8727H22.9346C23.1185 40.8727 23.284 40.8634 23.4495 40.8447L24.9205 42.9438H25.6652ZM22.9162 40.285H21.2061V37.0105H22.9162C24.2034 37.0105 24.8837 37.6075 24.8837 38.6524C24.8837 39.6786 24.2034 40.285 22.9162 40.285Z" fill="#4E245E"/>
<path d="M35.5903 36.4134V41.7123L31.4437 36.4134H30.8829V42.9438H31.5633V37.6448L35.7006 42.9438H36.2614V36.4134H35.5903Z" fill="#4E245E"/>
<path d="M42.0751 42.9438H42.7554V36.4134H42.0751V42.9438Z" fill="#4E245E"/>
<path d="M49.8128 42.9438H50.4932V37.0105H52.7549V36.4134H47.5511V37.0105H49.8128V42.9438Z" fill="#4E245E"/>
<path d="M60.0219 42.9997C61.6676 42.9997 62.6606 42.0295 62.6606 40.1544V36.4134H61.9986V40.1264C61.9986 41.675 61.2815 42.384 60.0219 42.384C58.7715 42.384 58.0543 41.675 58.0543 40.1264V36.4134H57.374V40.1544C57.374 42.0295 58.3761 42.9997 60.0219 42.9997Z" fill="#4E245E"/>
<path d="M73.5633 42.9438L71.9911 40.7048C72.9289 40.3969 73.4621 39.6786 73.4621 38.6524C73.4621 37.253 72.4692 36.4134 70.8326 36.4134H68.4238V42.9438H69.1041V40.8727H70.8326C71.0165 40.8727 71.182 40.8634 71.3475 40.8447L72.8185 42.9438H73.5633ZM70.8142 40.285H69.1041V37.0105H70.8142C72.1014 37.0105 72.7818 37.6075 72.7818 38.6524C72.7818 39.6786 72.1014 40.285 70.8142 40.285Z" fill="#4E245E"/>
<path d="M79.4613 42.3467V39.9211H82.7895V39.3334H79.4613V37.0105H83.1941V36.4134H78.7809V42.9438H83.332V42.3467H79.4613Z" fill="#4E245E"/>
<path d="M99.572 42.9438H100.289L97.347 36.4134H96.6759L93.7338 42.9438H94.4417L95.214 41.1992H98.7997L99.572 42.9438ZM95.4622 40.6395L97.0069 37.1317L98.5515 40.6395H95.4622Z" fill="#4E245E"/>
<path d="M109.774 36.4134V41.7123L105.628 36.4134H105.067V42.9438H105.747V37.6448L109.884 42.9438H110.445V36.4134H109.774Z" fill="#4E245E"/>
<path d="M116.259 42.9438H118.879C120.939 42.9438 122.327 41.6004 122.327 39.6786C122.327 37.7568 120.939 36.4134 118.879 36.4134H116.259V42.9438ZM116.939 42.3467V37.0105H118.842C120.553 37.0105 121.656 38.1113 121.656 39.6786C121.656 41.2459 120.553 42.3467 118.842 42.3467H116.939Z" fill="#4E245E"/>
<path d="M139.81 36.4134L137.043 41.2552L134.248 36.4134H133.687V42.9438H134.34V37.7475L136.868 42.1135H137.19L139.718 37.7195V42.9438H140.371V36.4134H139.81Z" fill="#4E245E"/>
<path d="M150.99 42.9438H151.707L148.765 36.4134H148.093L145.151 42.9438H145.859L146.632 41.1992H150.217L150.99 42.9438ZM146.88 40.6395L148.424 37.1317L149.969 40.6395H146.88Z" fill="#4E245E"/>
<path d="M157.412 42.9438H158.092V37.0105H160.354V36.4134H155.15V37.0105H157.412V42.9438Z" fill="#4E245E"/>
<path d="M166.494 42.9438H167.174V37.0105H169.436V36.4134H164.232V37.0105H166.494V42.9438Z" fill="#4E245E"/>
<path d="M179.375 42.9438L177.803 40.7048C178.741 40.3969 179.274 39.6786 179.274 38.6524C179.274 37.253 178.281 36.4134 176.645 36.4134H174.236V42.9438H174.916V40.8727H176.645C176.828 40.8727 176.994 40.8634 177.159 40.8447L178.631 42.9438H179.375ZM176.626 40.285H174.916V37.0105H176.626C177.913 37.0105 178.594 37.6075 178.594 38.6524C178.594 39.6786 177.913 40.285 176.626 40.285Z" fill="#4E245E"/>
<path d="M185.273 42.3467V39.9211H188.602V39.3334H185.273V37.0105H189.006V36.4134H184.593V42.9438H189.144V42.3467H185.273Z" fill="#4E245E"/>
<path d="M196.231 42.9997C197.876 42.9997 198.63 42.1788 198.63 41.2179C198.63 38.839 194.668 39.9211 194.668 38.13C194.668 37.4769 195.192 36.9452 196.369 36.9452C196.939 36.9452 197.582 37.1224 198.134 37.4862L198.364 36.9358C197.849 36.572 197.095 36.3574 196.369 36.3574C194.732 36.3574 193.997 37.1877 193.997 38.1486C193.997 40.5648 197.959 39.464 197.959 41.2552C197.959 41.8989 197.435 42.412 196.231 42.412C195.385 42.412 194.567 42.0762 194.107 41.619L193.84 42.1508C194.318 42.6546 195.265 42.9997 196.231 42.9997Z" fill="#4E245E"/>
<path d="M205.6 42.9997C207.246 42.9997 208 42.1788 208 41.2179C208 38.839 204.037 39.9211 204.037 38.13C204.037 37.4769 204.561 36.9452 205.738 36.9452C206.308 36.9452 206.952 37.1224 207.503 37.4862L207.733 36.9358C207.218 36.572 206.464 36.3574 205.738 36.3574C204.102 36.3574 203.366 37.1877 203.366 38.1486C203.366 40.5648 207.329 39.464 207.329 41.2552C207.329 41.8989 206.805 42.412 205.6 42.412C204.754 42.412 203.936 42.0762 203.476 41.619L203.21 42.1508C203.688 42.6546 204.635 42.9997 205.6 42.9997Z" fill="#4E245E"/>
</svg>
